<svg width="266" height="53" viewBox="0 0 266 53" fill="none" xmlns="http://www.w3.org/2000/svg">
<path d="M2.42824 33C2.30824 33 2.20624 32.964 2.12224 32.892C2.05024 32.808 2.01424 32.706 2.01424 32.586V20.832C2.01424 20.7 2.05024 20.598 2.12224 20.526C2.20624 20.442 2.30824 20.4 2.42824 20.4H11.3022C11.4342 20.4 11.5362 20.442 11.6082 20.526C11.6922 20.598 11.7342 20.7 11.7342 20.832V32.586C11.7342 32.706 11.6922 32.808 11.6082 32.892C11.5242 32.964 11.4222 33 11.3022 33H10.3842C10.2642 33 10.1622 32.964 10.0782 32.892C10.0062 32.808 9.97024 32.706 9.97024 32.586V22.02H3.77824V32.586C3.77824 32.706 3.73624 32.808 3.65224 32.892C3.56824 32.964 3.46624 33 3.34624 33H2.42824ZM18.4639 33.18C17.1439 33.18 16.1179 32.808 15.3859 32.064C14.6659 31.32 14.2819 30.33 14.2339 29.094L14.2159 28.32L14.2339 27.546C14.2819 26.322 14.6719 25.338 15.4039 24.594C16.1359 23.838 17.1559 23.46 18.4639 23.46C19.7719 23.46 20.7919 23.838 21.5239 24.594C22.2559 25.338 22.6459 26.322 22.6939 27.546C22.7059 27.678 22.7119 27.936 22.7119 28.32C22.7119 28.704 22.7059 28.962 22.6939 29.094C22.6459 30.33 22.2559 31.32 21.5239 32.064C20.8039 32.808 19.7839 33.18 18.4639 33.18ZM18.4639 31.794C19.2199 31.794 19.8139 31.554 20.2459 31.074C20.6899 30.594 20.9299 29.904 20.9659 29.004C20.9779 28.884 20.9839 28.656 20.9839 28.32C20.9839 27.984 20.9779 27.756 20.9659 27.636C20.9299 26.736 20.6899 26.046 20.2459 25.566C19.8139 25.086 19.2199 24.846 18.4639 24.846C17.7079 24.846 17.1079 25.086 16.6639 25.566C16.2199 26.046 15.9859 26.736 15.9619 27.636L15.9439 28.32L15.9619 29.004C15.9859 29.904 16.2199 30.594 16.6639 31.074C17.1079 31.554 17.7079 31.794 18.4639 31.794ZM24.4258 34.98C24.3058 34.98 24.2038 34.938 24.1198 34.854C24.0478 34.782 24.0118 34.686 24.0118 34.566V31.974C24.0118 31.854 24.0478 31.758 24.1198 31.686C24.2038 31.602 24.3058 31.56 24.4258 31.56H24.5158C25.0198 31.548 25.3978 31.128 25.6498 30.3C25.9138 29.472 26.0458 28.158 26.0458 26.358V24.054C26.0458 23.934 26.0818 23.838 26.1538 23.766C26.2378 23.682 26.3398 23.64 26.4598 23.64H32.2018C32.3218 23.64 32.4178 23.682 32.4898 23.766C32.5738 23.838 32.6158 23.934 32.6158 24.054V31.524H33.4618C33.5818 31.524 33.6778 31.566 33.7498 31.65C33.8338 31.722 33.8758 31.818 33.8758 31.938V34.566C33.8758 34.686 33.8338 34.782 33.7498 34.854C33.6778 34.938 33.5818 34.98 33.4618 34.98H32.6158C32.4958 34.98 32.3938 34.938 32.3098 34.854C32.2378 34.782 32.2018 34.686 32.2018 34.566V33H25.6858V34.566C25.6858 34.686 25.6438 34.782 25.5598 34.854C25.4878 34.938 25.3918 34.98 25.2718 34.98H24.4258ZM30.9418 31.524V25.08H27.6838V26.556C27.6838 28.956 27.3418 30.624 26.6578 31.56L30.9418 31.524ZM38.3688 33.18C37.7808 33.18 37.2348 33.06 36.7308 32.82C36.2268 32.58 35.8248 32.256 35.5248 31.848C35.2368 31.428 35.0928 30.966 35.0928 30.462C35.0928 29.67 35.4168 29.022 36.0648 28.518C36.7248 28.002 37.6128 27.666 38.7288 27.51L41.4108 27.132V26.61C41.4108 25.386 40.7088 24.774 39.3048 24.774C38.7768 24.774 38.3448 24.888 38.0088 25.116C37.6728 25.332 37.4208 25.59 37.2528 25.89C37.2168 25.998 37.1688 26.076 37.1088 26.124C37.0608 26.172 36.9888 26.196 36.8928 26.196H36.1188C36.0108 26.196 35.9148 26.16 35.8308 26.088C35.7588 26.004 35.7228 25.908 35.7228 25.8C35.7348 25.512 35.8668 25.188 36.1188 24.828C36.3828 24.456 36.7848 24.138 37.3248 23.874C37.8648 23.598 38.5308 23.46 39.3228 23.46C40.6668 23.46 41.6328 23.778 42.2208 24.414C42.8088 25.038 43.1028 25.818 43.1028 26.754V32.586C43.1028 32.706 43.0608 32.808 42.9768 32.892C42.9048 32.964 42.8088 33 42.6888 33H41.8608C41.7408 33 41.6388 32.964 41.5548 32.892C41.4828 32.808 41.4468 32.706 41.4468 32.586V31.812C41.1828 32.196 40.7988 32.52 40.2948 32.784C39.7908 33.048 39.1488 33.18 38.3688 33.18ZM38.7468 31.83C39.5268 31.83 40.1628 31.578 40.6548 31.074C41.1588 30.558 41.4108 29.82 41.4108 28.86V28.356L39.3228 28.662C38.4708 28.782 37.8288 28.986 37.3968 29.274C36.9648 29.55 36.7488 29.904 36.7488 30.336C36.7488 30.816 36.9468 31.188 37.3428 31.452C37.7388 31.704 38.2068 31.83 38.7468 31.83ZM48.5524 33C48.4324 33 48.3304 32.964 48.2464 32.892C48.1744 32.808 48.1384 32.706 48.1384 32.586V25.08H45.0064C44.8864 25.08 44.7844 25.044 44.7004 24.972C44.6284 24.888 44.5924 24.786 44.5924 24.666V24.054C44.5924 23.934 44.6284 23.838 44.7004 23.766C44.7844 23.682 44.8864 23.64 45.0064 23.64H52.9264C53.0464 23.64 53.1424 23.682 53.2144 23.766C53.2984 23.838 53.3404 23.934 53.3404 24.054V24.666C53.3404 24.786 53.2984 24.888 53.2144 24.972C53.1424 25.044 53.0464 25.08 52.9264 25.08H49.7944V32.586C49.7944 32.706 49.7584 32.808 49.6864 32.892C49.6144 32.964 49.5184 33 49.3984 33H48.5524ZM55.3153 33C55.1953 33 55.0933 32.964 55.0093 32.892C54.9373 32.808 54.9013 32.706 54.9013 32.586V24.054C54.9013 23.934 54.9373 23.838 55.0093 23.766C55.0933 23.682 55.1953 23.64 55.3153 23.64H56.1793C56.2993 23.64 56.3953 23.682 56.4673 23.766C56.5513 23.838 56.5933 23.934 56.5933 24.054V26.7H58.6093C59.7973 26.7 60.6793 26.982 61.2553 27.546C61.8433 28.098 62.1373 28.884 62.1373 29.904C62.1373 30.96 61.8253 31.74 61.2013 32.244C60.5893 32.748 59.6533 33 58.3933 33H55.3153ZM58.4653 31.65C59.1973 31.65 59.7253 31.518 60.0493 31.254C60.3853 30.99 60.5533 30.54 60.5533 29.904C60.5533 29.268 60.3853 28.8 60.0493 28.5C59.7253 28.2 59.1973 28.05 58.4653 28.05H56.5753V31.65H58.4653ZM71.589 33.18C70.713 33.18 69.987 33.042 69.411 32.766C68.847 32.49 68.433 32.154 68.169 31.758C67.917 31.362 67.785 30.972 67.773 30.588V30.552C67.773 30.456 67.809 30.378 67.881 30.318C67.953 30.258 68.037 30.228 68.133 30.228H68.979C69.195 30.228 69.339 30.342 69.411 30.57C69.543 31.026 69.801 31.35 70.185 31.542C70.581 31.722 71.097 31.812 71.733 31.812C72.345 31.812 72.849 31.686 73.245 31.434C73.641 31.182 73.839 30.81 73.839 30.318C73.839 29.814 73.695 29.442 73.407 29.202C73.131 28.95 72.699 28.824 72.111 28.824H71.121C71.013 28.824 70.923 28.788 70.851 28.716C70.779 28.644 70.743 28.548 70.743 28.428V27.942C70.743 27.822 70.779 27.726 70.851 27.654C70.923 27.582 71.013 27.546 71.121 27.546H72.003C73.023 27.546 73.533 27.144 73.533 26.34C73.533 25.908 73.377 25.548 73.065 25.26C72.765 24.972 72.273 24.828 71.589 24.828C70.929 24.828 70.449 24.942 70.149 25.17C69.861 25.386 69.651 25.734 69.519 26.214C69.471 26.334 69.411 26.424 69.339 26.484C69.279 26.532 69.189 26.556 69.069 26.556H68.259C68.151 26.556 68.061 26.526 67.989 26.466C67.917 26.394 67.881 26.31 67.881 26.214C67.893 25.722 68.037 25.266 68.313 24.846C68.589 24.426 69.003 24.09 69.555 23.838C70.107 23.586 70.785 23.46 71.589 23.46C72.429 23.46 73.119 23.592 73.659 23.856C74.199 24.12 74.589 24.45 74.829 24.846C75.069 25.242 75.189 25.656 75.189 26.088C75.189 26.58 75.105 26.982 74.937 27.294C74.781 27.594 74.493 27.846 74.073 28.05C74.589 28.242 74.955 28.542 75.171 28.95C75.399 29.358 75.513 29.856 75.513 30.444C75.513 31.32 75.153 31.998 74.433 32.478C73.713 32.946 72.765 33.18 71.589 33.18ZM80.152 33.18C79.564 33.18 79.018 33.06 78.514 32.82C78.01 32.58 77.608 32.256 77.308 31.848C77.02 31.428 76.876 30.966 76.876 30.462C76.876 29.67 77.2 29.022 77.848 28.518C78.508 28.002 79.396 27.666 80.512 27.51L83.194 27.132V26.61C83.194 25.386 82.492 24.774 81.088 24.774C80.56 24.774 80.128 24.888 79.792 25.116C79.456 25.332 79.204 25.59 79.036 25.89C79 25.998 78.952 26.076 78.892 26.124C78.844 26.172 78.772 26.196 78.676 26.196H77.902C77.794 26.196 77.698 26.16 77.614 26.088C77.542 26.004 77.506 25.908 77.506 25.8C77.518 25.512 77.65 25.188 77.902 24.828C78.166 24.456 78.568 24.138 79.108 23.874C79.648 23.598 80.314 23.46 81.106 23.46C82.45 23.46 83.416 23.778 84.004 24.414C84.592 25.038 84.886 25.818 84.886 26.754V32.586C84.886 32.706 84.844 32.808 84.76 32.892C84.688 32.964 84.592 33 84.472 33H83.644C83.524 33 83.422 32.964 83.338 32.892C83.266 32.808 83.23 32.706 83.23 32.586V31.812C82.966 32.196 82.582 32.52 82.078 32.784C81.574 33.048 80.932 33.18 80.152 33.18ZM80.53 31.83C81.31 31.83 81.946 31.578 82.438 31.074C82.942 30.558 83.194 29.82 83.194 28.86V28.356L81.106 28.662C80.254 28.782 79.612 28.986 79.18 29.274C78.748 29.55 78.532 29.904 78.532 30.336C78.532 30.816 78.73 31.188 79.126 31.452C79.522 31.704 79.99 31.83 80.53 31.83ZM94.1696 23.64C94.2896 23.64 94.3856 23.682 94.4576 23.766C94.5416 23.838 94.5836 23.934 94.5836 24.054V32.586C94.5836 32.706 94.5416 32.808 94.4576 32.892C94.3856 32.964 94.2896 33 94.1696 33H93.3056C93.1856 33 93.0836 32.964 92.9996 32.892C92.9276 32.808 92.8916 32.706 92.8916 32.586V29.652H90.9656L88.9316 32.73C88.8836 32.802 88.8176 32.868 88.7336 32.928C88.6496 32.976 88.5596 33 88.4636 33H87.5996C87.4916 33 87.4016 32.964 87.3296 32.892C87.2576 32.82 87.2216 32.736 87.2216 32.64C87.2216 32.52 87.2636 32.412 87.3476 32.316L89.3636 29.346C88.7396 29.13 88.2716 28.788 87.9596 28.32C87.6476 27.84 87.4916 27.264 87.4916 26.592C87.4916 25.584 87.7856 24.84 88.3736 24.36C88.9736 23.88 89.8736 23.64 91.0736 23.64H94.1696ZM92.9096 24.99H91.0196C90.3356 24.99 89.8376 25.11 89.5256 25.35C89.2136 25.59 89.0576 26.004 89.0576 26.592C89.0576 27.108 89.2076 27.522 89.5076 27.834C89.8196 28.146 90.2756 28.302 90.8756 28.302H92.9096V24.99ZM97.6962 33C97.5762 33 97.4742 32.964 97.3902 32.892C97.3182 32.808 97.2822 32.706 97.2822 32.586V24.054C97.2822 23.934 97.3182 23.838 97.3902 23.766C97.4742 23.682 97.5762 23.64 97.6962 23.64H101.44C102.544 23.64 103.384 23.868 103.96 24.324C104.548 24.768 104.842 25.38 104.842 26.16C104.842 26.676 104.746 27.078 104.554 27.366C104.362 27.642 104.068 27.882 103.672 28.086C104.104 28.266 104.44 28.566 104.68 28.986C104.932 29.406 105.058 29.856 105.058 30.336C105.058 31.2 104.752 31.86 104.14 32.316C103.54 32.772 102.688 33 101.584 33H97.6962ZM101.332 27.618C101.92 27.618 102.382 27.492 102.718 27.24C103.054 26.988 103.222 26.634 103.222 26.178C103.222 25.734 103.06 25.422 102.736 25.242C102.412 25.05 101.944 24.954 101.332 24.954H98.9382V27.618H101.332ZM101.44 31.686C102.04 31.686 102.508 31.572 102.844 31.344C103.192 31.116 103.366 30.78 103.366 30.336C103.366 29.856 103.21 29.508 102.898 29.292C102.586 29.064 102.1 28.95 101.44 28.95H98.9382V31.686H101.44ZM115.184 32.478C115.244 32.55 115.274 32.628 115.274 32.712C115.274 32.796 115.238 32.868 115.166 32.928C115.106 32.976 115.022 33 114.914 33H113.816C113.624 33 113.468 32.91 113.348 32.73L110.738 28.968H109.046V32.586C109.046 32.706 109.004 32.808 108.92 32.892C108.848 32.964 108.752 33 108.632 33H107.786C107.666 33 107.564 32.964 107.48 32.892C107.408 32.808 107.372 32.706 107.372 32.586V24.054C107.372 23.934 107.408 23.838 107.48 23.766C107.564 23.682 107.666 23.64 107.786 23.64H108.632C108.752 23.64 108.848 23.682 108.92 23.766C109.004 23.838 109.046 23.934 109.046 24.054V27.51H110.702L113.114 23.91C113.258 23.73 113.42 23.64 113.6 23.64H114.536C114.644 23.64 114.734 23.67 114.806 23.73C114.878 23.778 114.914 23.844 114.914 23.928C114.914 23.988 114.884 24.06 114.824 24.144L112.142 28.122L115.184 32.478ZM124.708 23.64C124.804 23.64 124.888 23.676 124.96 23.748C125.032 23.82 125.068 23.904 125.068 24C125.068 24.084 125.038 24.192 124.978 24.324L121.558 32.424L121.396 32.784C121.084 33.54 120.796 34.164 120.532 34.656C120.268 35.148 119.938 35.562 119.542 35.898C119.146 36.246 118.678 36.42 118.138 36.42H117.454C117.334 36.42 117.232 36.384 117.148 36.312C117.076 36.24 117.04 36.138 117.04 36.006V35.394C117.04 35.274 117.076 35.172 117.148 35.088C117.232 35.016 117.334 34.98 117.454 34.98H117.922C118.186 34.98 118.402 34.926 118.57 34.818C118.738 34.722 118.888 34.554 119.02 34.314C119.164 34.074 119.338 33.708 119.542 33.216L119.848 32.478L116.32 24.324C116.26 24.168 116.23 24.066 116.23 24.018C116.242 23.91 116.284 23.82 116.356 23.748C116.428 23.676 116.512 23.64 116.608 23.64H117.454C117.658 23.64 117.808 23.742 117.904 23.946L120.658 30.552L123.448 23.946C123.532 23.742 123.682 23.64 123.898 23.64H124.708Z" fill="#0000ED"/>
<path d="M166.53 29.0303C166.823 28.7374 166.823 28.2626 166.53 27.9697L161.757 23.1967C161.464 22.9038 160.99 22.9038 160.697 23.1967C160.404 23.4896 160.404 23.9645 160.697 24.2574L164.939 28.5L160.697 32.7426C160.404 33.0355 160.404 33.5104 160.697 33.8033C160.99 34.0962 161.464 34.0962 161.757 33.8033L166.53 29.0303ZM143 29.25H166V27.75H143V29.25Z" fill="#0000ED"/>
</svg>
