<svg width="155" height="47" viewBox="0 0 155 47" fill="none" xmlns="http://www.w3.org/2000/svg">
<g style="mix-blend-mode:lighten" clip-path="url(#clip0)">
<path d="M16.1994 -0.0148926H0.177856V46.6615H16.1994V-0.0148926Z" fill="#010101"/>
<path d="M15.88 46.3596H0.47945V0.287047H15.88V46.3596ZM16.501 -0.334595H15.88H0.47945H-0.141541V0.287047V46.3418V46.9635H0.47945H15.88H16.501V46.3418V0.287047V-0.334595Z" fill="white"/>
<path d="M31.5999 -0.0148926H15.5784V46.6615H31.5999V-0.0148926Z" fill="#010101"/>
<path d="M31.2806 46.3596H15.88V0.287047H31.2806V46.3596ZM31.9016 -0.334595H31.2806H15.88H15.259V0.287047V46.3418V46.9635H15.88H31.2806H31.9016V46.3418V0.287047V-0.334595Z" fill="white"/>
<path d="M47.0005 -0.0148926H30.9789V46.6615H47.0005V-0.0148926Z" fill="#010101"/>
<path d="M46.6989 46.3596H31.2983V0.287047H46.6989V46.3596ZM47.3199 -0.334595H46.6989H31.2983H30.6596V0.287047V46.3418V46.9635H31.2806H46.6811H47.3021V46.3418V0.287047V-0.334595H47.3199Z" fill="white"/>
<path d="M62.4011 -0.0148926H46.3795V46.6615H62.4011V-0.0148926Z" fill="#010101"/>
<path d="M62.0995 46.3596H46.6989V0.287047H62.0995V46.3596ZM62.7205 -0.334595H62.0995H46.6989H46.0779V0.287047V46.3418V46.9635H46.6989H62.0995H62.7205V46.3418V0.287047V-0.334595Z" fill="white"/>
<path d="M77.8016 -0.0148926H61.7801V46.6615H77.8016V-0.0148926Z" fill="#010101"/>
<path d="M77.5 46.3596H62.0994V0.287047H77.5V46.3596ZM78.121 -0.334595H77.5H62.0994H61.4785V0.287047V46.3418V46.9635H62.0994H77.5H78.121V46.3418V0.287047V-0.334595Z" fill="white"/>
<path d="M93.2199 -0.0148926H77.1984V46.6615H93.2199V-0.0148926Z" fill="#010101"/>
<path d="M92.9006 46.3596H77.5V0.287047H92.9006V46.3596ZM93.5216 -0.334595H92.9006H77.5H76.879V0.287047V46.3418V46.9635H77.5H92.9006H93.5216V46.3418V0.287047V-0.334595Z" fill="white"/>
<path d="M108.62 -0.0148926H92.5989V46.6615H108.62V-0.0148926Z" fill="#010101"/>
<path d="M108.301 46.3596H92.9006V0.287047H108.301V46.3596ZM108.922 -0.334595H108.301H92.9006H92.2796V0.287047V46.3418V46.9635H92.9006H108.301H108.922V46.3418V0.287047V-0.334595Z" fill="white"/>
<path d="M124.021 -0.0148926H108V46.6615H124.021V-0.0148926Z" fill="#010101"/>
<path d="M123.719 46.3596H108.319V0.287047H123.719V46.3596ZM124.34 -0.334595H123.719H108.319H107.698V0.287047V46.3418V46.9635H108.319H123.719H124.34V46.3418V0.287047V-0.334595Z" fill="white"/>
<path d="M139.422 -0.0148926H123.4V46.6615H139.422V-0.0148926Z" fill="#010101"/>
<path d="M139.12 46.3596H123.719V0.287047H139.12V46.3596ZM139.741 -0.334595H139.12H123.719H123.098V0.287047V46.3418V46.9635H123.719H139.12H139.741V46.3418V0.287047V-0.334595Z" fill="white"/>
<path d="M154.822 -0.0148926H138.801V46.6615H154.822V-0.0148926Z" fill="#010101"/>
<path d="M154.521 46.3596H139.12V0.287047H154.521V46.3596ZM155.142 -0.334595H154.521H139.12H138.499V0.287047V46.3418V46.9635H139.12H154.521H155.142V46.3418V0.287047V-0.334595Z" fill="white"/>
<path d="M4.34732 16.7695H0.479431V29.6286H4.25861C5.90867 29.6286 8.44585 29.522 10.1846 27.8525C10.9476 27.1065 11.9234 25.6501 11.9234 23.1457C11.9234 21.8314 11.6573 19.9842 10.1846 18.5456C8.4636 16.876 6.299 16.7695 4.34732 16.7695ZM6.47643 25.8632C5.64253 26.5381 4.31183 26.5736 3.61987 26.5736H2.00529V19.7711H3.65535C4.68442 19.7711 5.74898 19.7889 6.5474 20.4816C7.20387 21.0499 7.55872 22.0623 7.55872 23.1457C7.55872 24.3535 7.09742 25.3481 6.47643 25.8632Z" fill="white"/>
<path d="M17.9204 24.5311H24.6093L24.6271 21.7426H17.9204V19.7889H26.0465V16.7872L15.88 16.7695V29.6286L26.2417 29.6463V26.6269H17.9204V24.5311Z" fill="white"/>
<path d="M40.9148 23.0037C40.276 22.5063 39.2825 22.1333 37.5437 21.8847L35.9469 21.636C34.7581 21.4584 34.3145 21.3519 33.9774 21.2631C33.6403 21.1742 33.0903 20.9789 33.0903 20.3395C33.0903 20.0375 33.1968 19.6645 33.7113 19.3804C34.1726 19.1495 34.7581 19.1139 35.2549 19.1139C36.2662 19.1139 36.692 19.256 36.905 19.3804C37.5082 19.7001 37.5792 20.1974 37.5614 20.5171H41.518C41.5535 19.5402 41.3406 18.2614 39.7438 17.3201C39.0696 16.9116 37.7921 16.432 35.3259 16.432C33.179 16.432 31.937 16.8228 31.2628 17.1247V23.6963C31.9193 23.9095 32.6645 24.0338 33.5161 24.1759L35.3968 24.4956C36.0711 24.6022 36.5501 24.6554 37.0469 24.8686C37.4905 25.0284 37.8985 25.3126 37.8985 25.9165C37.8985 26.1296 37.8453 26.6802 37.1711 27.0177C36.692 27.2486 36.1243 27.2663 35.5388 27.2663C34.9178 27.2663 34.1194 27.2131 33.6048 26.8045C33.1258 26.4138 33.0548 25.881 33.0548 25.508V25.4369H31.2806V29.3444C32.629 30.0016 34.2968 30.0371 35.6807 30.0371C37.5082 30.0371 39.3889 29.9305 40.6664 28.9714C41.3761 28.4386 42.1922 27.4439 42.1922 25.7922C42.21 24.9041 41.9793 23.8029 40.9148 23.0037Z" fill="white"/>
<path d="M66.8899 25.0462H69.2142C69.1077 25.7744 68.7351 26.2717 68.2561 26.6092C67.6351 27.0354 66.9609 27.0887 66.2866 27.0887C65.435 27.0887 64.5656 27.0177 63.8027 26.2184C63.3236 25.7033 62.8623 24.8153 62.8623 23.3589C62.8623 22.1334 63.1639 21.0144 63.8204 20.3217C64.5479 19.558 65.5237 19.4336 66.3221 19.4336C66.8899 19.4336 67.5641 19.5047 68.1141 19.8599C68.7529 20.2862 68.8948 20.8368 68.9303 21.2098H73.082C73.0288 20.1086 72.6562 18.5989 70.8287 17.4799C69.3384 16.5741 67.5109 16.432 66.0737 16.432C64.7253 16.432 63.3591 16.5563 62.0639 17.1602V29.5575C63.1994 30.0016 64.3882 30.0371 65.5769 30.0371C66.6415 30.0371 67.7415 30.0193 68.7529 29.4865C69.569 29.0602 69.9948 28.4741 70.261 27.9945L70.4207 29.6641H73.153V22.6662H66.8367L66.8899 25.0462Z" fill="white"/>
<path d="M102.783 23.0392C102.144 22.5419 101.151 22.1689 99.4121 21.9202L97.8152 21.6716C96.6265 21.494 96.1829 21.3874 95.8458 21.2986C95.5087 21.2098 94.9587 21.0144 94.9587 20.375C94.9587 20.0731 95.0652 19.7001 95.5797 19.4159C96.041 19.185 96.6265 19.1317 97.1233 19.1495C98.1346 19.1495 98.5604 19.2916 98.7734 19.4159C99.3766 19.7356 99.4476 20.2329 99.4298 20.5526H103.386C103.422 19.5757 103.209 18.2969 101.612 17.3556C100.938 16.9471 99.6605 16.4675 97.1943 16.4675C94.7458 16.4675 93.4861 16.9648 92.8828 17.2845V23.6431C93.5925 23.9272 94.4442 24.0693 95.3845 24.2114L97.2652 24.5311C97.9395 24.6377 98.4185 24.691 98.9153 24.9041C99.3589 25.064 99.7669 25.3481 99.7669 25.952C99.7669 26.1651 99.7137 26.7157 99.0395 27.0532C98.5604 27.2841 97.9927 27.3019 97.4072 27.3019C96.7862 27.3019 95.9878 27.2486 95.4732 26.8401C94.9942 26.4493 94.9232 25.9165 94.9232 25.5435V25.4725H92.9006V29.2556C94.3022 30.0371 96.0942 30.0726 97.5491 30.0726C99.3766 30.0726 101.257 29.966 102.535 29.0069C103.244 28.4741 104.061 27.4795 104.061 25.8277C104.078 24.9396 103.848 23.8384 102.783 23.0392Z" fill="white"/>
<path d="M127.676 16.4675C126.54 16.4675 125.086 16.5919 123.702 17.1602V29.3622C125.068 29.9305 126.523 30.0548 127.64 30.0548C129.344 30.0548 131.863 29.7884 133.62 28.0123C134.471 27.1598 135.412 25.7034 135.429 23.2523C135.429 20.8013 134.471 19.3448 133.637 18.4923C131.881 16.7517 129.379 16.4675 127.676 16.4675ZM130.036 26.1829C129.308 26.9111 128.368 27.0532 127.64 27.0532C126.931 27.0532 125.99 26.9289 125.263 26.1829C124.748 25.6678 124.234 24.7265 124.234 23.2523C124.234 21.7781 124.748 20.8368 125.263 20.3395C125.99 19.6113 126.931 19.4692 127.658 19.4692C128.368 19.4692 129.308 19.5935 130.036 20.3395C130.55 20.8545 131.065 21.7959 131.065 23.2701C131.065 24.7443 130.55 25.6678 130.036 26.1829Z" fill="white"/>
<path d="M139.12 19.8599H141.125V29.6996H145.188L145.206 19.8599H149.499V16.8405H139.12V19.8599Z" fill="white"/>
<path d="M114.334 16.8228H108.319V29.6819H110.856V25.7922H113.89C115.966 25.7922 117.527 25.7034 118.663 24.4068C119.248 23.7496 119.745 22.7017 119.745 21.2453C119.745 19.6823 119.142 18.7054 118.556 18.1193C117.314 16.9116 115.753 16.8228 114.334 16.8228ZM115.15 22.4708C114.706 22.8793 113.979 22.9326 113.446 22.9326H110.856V19.8422H113.571C114.44 19.8422 114.83 20.002 115.061 20.1619C115.345 20.3395 115.611 20.6769 115.611 21.2808C115.611 21.8314 115.398 22.2222 115.15 22.4708Z" fill="white"/>
<path d="M84.2954 24.5666L78.6 16.805H77.5V29.6641H78.7597V21.9202L84.4728 29.6641L88.3585 29.6819L88.3762 16.805H84.2954V24.5666Z" fill="white"/>
<path d="M57.0783 19.8599V16.8405H52.7668H48.7038H46.6989V19.8599H48.7038V23.2701V26.698H46.6989V29.6996H48.7038H52.7668H57.0783V26.6802H52.7846V23.2701V19.8599H57.0783Z" fill="white"/>
</g>
<defs>
<clipPath id="clip0">
<rect width="155" height="47" fill="white"/>
</clipPath>
</defs>
</svg>
