<svg width="299" height="59" viewBox="0 0 299 59" fill="none" xmlns="http://www.w3.org/2000/svg">
<rect x="144" y="11" width="128" height="6" fill="#6E124A"/>
<rect x="3" y="11" width="54" height="8" fill="#83AF53"/>
<rect y="12" width="25" height="4" fill="#0000ED"/>
<g filter="url(#filter0_d)">
<rect width="242" height="53" transform="translate(10)" fill="#0000ED"/>
<path d="M52.9029 20.4V33H51.1389V21.966H43.8309V33H42.0489V20.4H52.9029ZM60.6301 33.108C59.6821 33.108 58.8301 32.898 58.0741 32.478C57.3181 32.058 56.7241 31.482 56.2921 30.75C55.8721 30.006 55.6621 29.166 55.6621 28.23C55.6621 27.294 55.8721 26.46 56.2921 25.728C56.7241 24.984 57.3181 24.408 58.0741 24C58.8301 23.58 59.6821 23.37 60.6301 23.37C61.5781 23.37 62.4241 23.58 63.1681 24C63.9241 24.408 64.5121 24.984 64.9321 25.728C65.3641 26.46 65.5801 27.294 65.5801 28.23C65.5801 29.166 65.3641 30.006 64.9321 30.75C64.5121 31.482 63.9241 32.058 63.1681 32.478C62.4241 32.898 61.5781 33.108 60.6301 33.108ZM60.6301 31.596C61.2421 31.596 61.7881 31.458 62.2681 31.182C62.7601 30.894 63.1441 30.498 63.4201 29.994C63.6961 29.478 63.8341 28.89 63.8341 28.23C63.8341 27.57 63.6961 26.988 63.4201 26.484C63.1441 25.968 62.7601 25.572 62.2681 25.296C61.7881 25.02 61.2421 24.882 60.6301 24.882C60.0181 24.882 59.4661 25.02 58.9741 25.296C58.4941 25.572 58.1101 25.968 57.8221 26.484C57.5461 26.988 57.4081 27.57 57.4081 28.23C57.4081 28.89 57.5461 29.478 57.8221 29.994C58.1101 30.498 58.4941 30.894 58.9741 31.182C59.4661 31.458 60.0181 31.596 60.6301 31.596ZM77.7071 31.488V35.214H76.0871V33H68.1131V35.214H66.4751V31.488H66.9791C67.5911 31.452 68.0111 31.02 68.2391 30.192C68.4671 29.364 68.6231 28.194 68.7071 26.682L68.8511 23.46H76.2491V31.488H77.7071ZM70.2911 26.808C70.2431 28.008 70.1411 29.004 69.9851 29.796C69.8411 30.576 69.5711 31.14 69.1751 31.488H74.5211V24.972H70.3811L70.2911 26.808ZM83.3602 23.37C84.6802 23.37 85.6882 23.694 86.3842 24.342C87.0922 24.99 87.4462 25.956 87.4462 27.24V33H85.8082V31.74C85.5202 32.184 85.1062 32.526 84.5662 32.766C84.0382 32.994 83.4082 33.108 82.6762 33.108C81.6082 33.108 80.7502 32.85 80.1022 32.334C79.4662 31.818 79.1482 31.14 79.1482 30.3C79.1482 29.46 79.4542 28.788 80.0662 28.284C80.6782 27.768 81.6502 27.51 82.9822 27.51H85.7182V27.168C85.7182 26.424 85.5022 25.854 85.0702 25.458C84.6382 25.062 84.0022 24.864 83.1622 24.864C82.5982 24.864 82.0462 24.96 81.5062 25.152C80.9662 25.332 80.5102 25.578 80.1382 25.89L79.4182 24.594C79.9102 24.198 80.4982 23.898 81.1822 23.694C81.8662 23.478 82.5922 23.37 83.3602 23.37ZM82.9642 31.776C83.6242 31.776 84.1942 31.632 84.6742 31.344C85.1542 31.044 85.5022 30.624 85.7182 30.084V28.752H83.0542C81.5902 28.752 80.8582 29.244 80.8582 30.228C80.8582 30.708 81.0442 31.086 81.4162 31.362C81.7882 31.638 82.3042 31.776 82.9642 31.776ZM97.6678 24.972H94.1758V33H92.4478V24.972H88.9558V23.46H97.6678V24.972ZM103.845 26.7C105.057 26.712 105.981 26.988 106.617 27.528C107.253 28.068 107.571 28.83 107.571 29.814C107.571 30.846 107.223 31.644 106.527 32.208C105.843 32.76 104.859 33.03 103.575 33.018L99.4347 33V23.46H101.163V26.682L103.845 26.7ZM103.431 31.704C104.211 31.716 104.799 31.56 105.195 31.236C105.603 30.912 105.807 30.432 105.807 29.796C105.807 29.172 105.609 28.716 105.213 28.428C104.829 28.14 104.235 27.99 103.431 27.978L101.163 27.942V31.686L103.431 31.704ZM119.788 28.032C120.424 28.2 120.916 28.47 121.264 28.842C121.612 29.214 121.786 29.676 121.786 30.228C121.786 30.792 121.594 31.296 121.21 31.74C120.826 32.172 120.292 32.514 119.608 32.766C118.936 33.006 118.18 33.126 117.34 33.126C116.632 33.126 115.936 33.036 115.252 32.856C114.58 32.664 113.98 32.394 113.452 32.046L113.974 30.732C114.43 31.02 114.952 31.248 115.54 31.416C116.128 31.572 116.722 31.65 117.322 31.65C118.138 31.65 118.786 31.512 119.266 31.236C119.758 30.948 120.004 30.564 120.004 30.084C120.004 29.64 119.806 29.298 119.41 29.058C119.026 28.818 118.48 28.698 117.772 28.698H116.026V27.456H117.646C118.294 27.456 118.804 27.342 119.176 27.114C119.548 26.886 119.734 26.574 119.734 26.178C119.734 25.746 119.512 25.41 119.068 25.17C118.636 24.93 118.048 24.81 117.304 24.81C116.356 24.81 115.354 25.056 114.298 25.548L113.83 24.216C114.994 23.628 116.212 23.334 117.484 23.334C118.252 23.334 118.942 23.442 119.554 23.658C120.166 23.874 120.646 24.18 120.994 24.576C121.342 24.972 121.516 25.422 121.516 25.926C121.516 26.394 121.36 26.814 121.048 27.186C120.736 27.558 120.316 27.84 119.788 28.032ZM127.815 23.37C129.135 23.37 130.143 23.694 130.839 24.342C131.547 24.99 131.901 25.956 131.901 27.24V33H130.263V31.74C129.975 32.184 129.561 32.526 129.021 32.766C128.493 32.994 127.863 33.108 127.131 33.108C126.063 33.108 125.205 32.85 124.557 32.334C123.921 31.818 123.603 31.14 123.603 30.3C123.603 29.46 123.909 28.788 124.521 28.284C125.133 27.768 126.105 27.51 127.437 27.51H130.173V27.168C130.173 26.424 129.957 25.854 129.525 25.458C129.093 25.062 128.457 24.864 127.617 24.864C127.053 24.864 126.501 24.96 125.961 25.152C125.421 25.332 124.965 25.578 124.593 25.89L123.873 24.594C124.365 24.198 124.953 23.898 125.637 23.694C126.321 23.478 127.047 23.37 127.815 23.37ZM127.419 31.776C128.079 31.776 128.649 31.632 129.129 31.344C129.609 31.044 129.957 30.624 130.173 30.084V28.752H127.509C126.045 28.752 125.313 29.244 125.313 30.228C125.313 30.708 125.499 31.086 125.871 31.362C126.243 31.638 126.759 31.776 127.419 31.776ZM142.663 23.46V33H141.115V29.976H138.343H138.145L136.057 33H134.203L136.525 29.742C135.805 29.526 135.253 29.172 134.869 28.68C134.485 28.176 134.293 27.552 134.293 26.808C134.293 25.716 134.665 24.888 135.409 24.324C136.153 23.748 137.179 23.46 138.487 23.46H142.663ZM136.057 26.862C136.057 27.498 136.255 27.972 136.651 28.284C137.059 28.584 137.665 28.734 138.469 28.734H141.115V24.972H138.541C136.885 24.972 136.057 25.602 136.057 26.862ZM152.532 28.05C153.768 28.362 154.386 29.136 154.386 30.372C154.386 31.212 154.068 31.86 153.432 32.316C152.808 32.772 151.872 33 150.624 33H146.034V23.46H150.462C151.59 23.46 152.472 23.676 153.108 24.108C153.744 24.528 154.062 25.128 154.062 25.908C154.062 26.412 153.924 26.85 153.648 27.222C153.384 27.582 153.012 27.858 152.532 28.05ZM147.726 27.564H150.318C150.978 27.564 151.476 27.444 151.812 27.204C152.16 26.964 152.334 26.616 152.334 26.16C152.334 25.248 151.662 24.792 150.318 24.792H147.726V27.564ZM150.498 31.668C151.218 31.668 151.758 31.554 152.118 31.326C152.478 31.098 152.658 30.744 152.658 30.264C152.658 29.772 152.49 29.406 152.154 29.166C151.83 28.926 151.314 28.806 150.606 28.806H147.726V31.668H150.498ZM160.799 28.968H158.819V33H157.091V23.46H158.819V27.492H160.835L163.931 23.46H165.785L162.167 28.05L166.037 33H164.003L160.799 28.968ZM175.818 23.46L171.192 33.954C170.784 34.926 170.304 35.61 169.752 36.006C169.212 36.402 168.558 36.6 167.79 36.6C167.322 36.6 166.866 36.522 166.422 36.366C165.99 36.222 165.63 36.006 165.342 35.718L166.08 34.422C166.572 34.89 167.142 35.124 167.79 35.124C168.21 35.124 168.558 35.01 168.834 34.782C169.122 34.566 169.38 34.188 169.608 33.648L169.914 32.982L165.702 23.46H167.502L170.832 31.092L174.126 23.46H175.818Z" fill="white"/>
<path d="M222.354 28.8536C222.549 28.6583 222.549 28.3417 222.354 28.1464L219.172 24.9645C218.976 24.7692 218.66 24.7692 218.464 24.9645C218.269 25.1597 218.269 25.4763 218.464 25.6716L221.293 28.5L218.464 31.3284C218.269 31.5237 218.269 31.8403 218.464 32.0355C218.66 32.2308 218.976 32.2308 219.172 32.0355L222.354 28.8536ZM199 29H222V28H199V29Z" fill="white"/>
</g>
<rect x="219" y="40" width="54" height="3" fill="#0000ED"/>
<rect x="241" y="30" width="22" height="8" fill="#0000ED"/>
<rect x="194" y="5" width="75" height="8" fill="#0000ED"/>
<rect x="5" y="34" width="19" height="9" fill="#0000ED"/>
<rect x="3" y="42" width="54" height="4" fill="#701879"/>
<g style="mix-blend-mode:screen">
<rect x="242" y="11" width="30" height="2" fill="#29DAD6"/>
</g>
<rect x="5" y="10" width="17" height="4" fill="#DF4DEE"/>
<defs>
<filter id="filter0_d" x="10" y="0" width="249" height="59" filterUnits="userSpaceOnUse" color-interpolation-filters="sRGB">
<feFlood flood-opacity="0" result="BackgroundImageFix"/>
<feColorMatrix in="SourceAlpha" type="matrix" values="0 0 0 0 0 0 0 0 0 0 0 0 0 0 0 0 0 0 127 0"/>
<feOffset dx="7" dy="6"/>
<feColorMatrix type="matrix" values="0 0 0 0 0.937255 0 0 0 0 0.439216 0 0 0 0 0 0 0 0 0.63 0"/>
<feBlend mode="normal" in2="BackgroundImageFix" result="effect1_dropShadow"/>
<feBlend mode="normal" in="SourceGraphic" in2="effect1_dropShadow" result="shape"/>
</filter>
</defs>
</svg>
