<svg width="567" height="99" viewBox="0 0 567 99" fill="none" xmlns="http://www.w3.org/2000/svg">
<g style="mix-blend-mode:hard-light">
<path d="M12.0375 93.4536C12.0375 97.0609 10.5453 98.8645 7.56073 98.8645C4.57619 98.8645 3.08392 97.0609 3.08392 93.4536V88.4671C3.08392 83.4452 5.46445 80.8635 10.2255 80.722C11.6467 77.6806 13.1745 72.6234 14.8089 65.5503C16.4433 58.4064 17.7934 50.6968 18.8593 42.4213C19.9252 34.1457 20.4582 26.7897 20.4582 20.3532H57.6583V80.8281C61.9219 81.0403 64.0537 83.5866 64.0537 88.4671V93.4536C64.0537 97.0609 62.5614 98.8645 59.5769 98.8645C56.5924 98.8645 55.1001 97.0609 55.1001 93.4536V89.1037H12.0375V93.4536ZM30.1579 29.2653C29.8737 36.975 28.6656 46.0993 26.5338 56.6382C24.4731 67.1063 22.3057 74.9575 20.0318 80.1916H48.7047V29.2653H30.1579Z" fill="white"/>
<path d="M80.6002 89.8463C77.6867 89.8463 76.23 88.1488 76.23 84.7537V24.8093C76.23 21.3434 77.7223 19.6105 80.7068 19.6105C83.6913 19.6105 85.1836 21.4495 85.1836 25.1276V73.9319L200.661 22.2629C202.011 20.4947 203.539 19.6105 205.245 19.6105C208.087 19.6105 209.508 21.3434 209.508 24.8093V84.7537C209.508 88.1488 208.016 89.8463 205.031 89.8463C202.047 89.8463 200.555 88.2549 200.555 85.072V35.6311L85.5034 86.8756C84.6507 88.0781 83.9045 88.8561 83.265 89.2098C82.6254 89.6341 81.7372 89.8463 80.6002 89.8463Z" fill="white"/>
<path d="M261.071 49.2114C265.051 49.2114 268.213 48.3627 270.558 46.6651C272.903 44.8968 274.075 42.5981 274.075 39.7689C274.075 36.6567 272.796 34.1457 270.238 32.236C267.751 30.2555 264.553 29.2653 260.645 29.2653H241.139C239.433 29.2653 238.296 29.5482 237.728 30.1141C237.231 30.6799 236.982 31.9177 236.982 33.8274V35.7372C236.982 39.3445 235.49 41.1481 232.505 41.1481C229.521 41.1481 228.028 39.3445 228.028 35.7372C228.028 30.0787 228.952 26.1178 230.8 23.8544C232.647 21.5203 235.845 20.3532 240.393 20.3532H261.391C265.655 20.3532 269.421 21.1313 272.69 22.6873C275.958 24.2434 278.481 26.4361 280.258 29.2653C282.105 32.0945 283.029 35.3482 283.029 39.0262C283.029 45.2505 280.755 50.1663 276.207 53.7736C280.755 57.8052 283.029 63.004 283.029 69.3697C283.029 73.1185 282.105 76.5136 280.258 79.555C278.41 82.5257 275.816 84.8598 272.477 86.5574C269.208 88.2549 265.513 89.1037 261.391 89.1037H240.393C235.845 89.1037 232.647 87.972 230.8 85.7086C228.952 83.3745 228.028 79.3782 228.028 73.7197C228.028 70.1124 229.521 68.3088 232.505 68.3088C235.49 68.3088 236.982 70.1124 236.982 73.7197V75.6294C236.982 77.5392 237.231 78.7769 237.728 79.3428C238.296 79.9086 239.433 80.1916 241.139 80.1916H260.645C264.482 80.1916 267.68 79.0952 270.238 76.9026C272.796 74.6392 274.075 71.8807 274.075 68.6271C274.075 65.5149 272.867 63.004 270.451 61.0942C268.035 59.1138 264.909 58.1235 261.071 58.1235H251.905C248.209 58.1235 246.362 56.6382 246.362 53.6675C246.362 50.6968 248.209 49.2114 251.905 49.2114H261.071Z" fill="white"/>
<path d="M326.523 20.3532L351.998 84.3293C352.211 85.0366 352.318 85.9208 352.318 86.9817C352.318 87.972 351.856 88.8561 350.932 89.6341C350.079 90.4122 349.049 90.8012 347.841 90.8012C345.638 90.8012 344.11 89.6695 343.258 87.4061L336.116 69.0514H307.337L300.195 87.4061C299.2 89.6695 297.672 90.8012 295.612 90.8012C294.404 90.8012 293.338 90.4122 292.414 89.6341C291.561 88.8561 291.135 87.972 291.135 86.9817C291.135 85.9208 291.241 85.0366 291.455 84.3293L316.93 20.3532H326.523ZM321.62 33.7214L310.961 60.1394H332.492L321.62 33.7214Z" fill="white"/>
<path d="M383.48 22.1569C379.287 22.1569 376.338 21.0959 374.633 18.974C372.927 16.852 372.074 13.2094 372.074 8.04603V3.48389H381.028V9.74357C381.028 11.2997 381.206 12.2899 381.561 12.7143C381.916 13.0679 382.84 13.2448 384.332 13.2448H395.205C396.626 13.2448 397.514 13.0679 397.869 12.7143C398.225 12.2899 398.402 11.2997 398.402 9.74357V3.48389H407.356V8.04603C407.356 13.2801 406.503 16.9581 404.798 19.0801C403.092 21.1313 400.143 22.1569 395.951 22.1569H383.48ZM366.958 89.8463C364.045 89.8463 362.588 88.1488 362.588 84.7537V24.8093C362.588 21.3434 364.08 19.6105 367.065 19.6105C370.049 19.6105 371.542 21.4495 371.542 25.1276V73.9319L408.742 22.2629C410.092 20.4947 411.62 19.6105 413.325 19.6105C416.167 19.6105 417.589 21.3434 417.589 24.8093V84.7537C417.589 88.1488 416.096 89.8463 413.112 89.8463C410.127 89.8463 408.635 88.2549 408.635 85.072V35.6311L371.861 86.8756C371.009 88.0781 370.262 88.8561 369.623 89.2098C368.983 89.6341 368.095 89.8463 366.958 89.8463Z" fill="white"/>
<path d="M443.157 84.7537C443.157 88.1488 441.665 89.8463 438.68 89.8463C435.696 89.8463 434.203 88.1488 434.203 84.7537V24.8093C434.203 21.3434 435.625 19.6105 438.467 19.6105C441.594 19.6105 443.157 21.3434 443.157 24.8093V47.62H480.251V24.8093C480.251 21.3434 481.743 19.6105 484.727 19.6105C487.712 19.6105 489.204 21.3434 489.204 24.8093V84.7537C489.204 88.1488 487.712 89.8463 484.727 89.8463C481.743 89.8463 480.251 88.1488 480.251 84.7537V56.5321H443.157V84.7537Z" fill="white"/>
<path d="M537.388 20.3532L562.863 84.3293C563.076 85.0366 563.183 85.9208 563.183 86.9817C563.183 87.972 562.721 88.8561 561.797 89.6341C560.945 90.4122 559.914 90.8012 558.706 90.8012C556.503 90.8012 554.975 89.6695 554.123 87.4061L546.981 69.0514H518.202L511.06 87.4061C510.065 89.6695 508.538 90.8012 506.477 90.8012C505.269 90.8012 504.203 90.4122 503.279 89.6341C502.426 88.8561 502 87.972 502 86.9817C502 85.9208 502.107 85.0366 502.32 84.3293L527.795 20.3532H537.388ZM532.485 33.7214L521.826 60.1394H543.357L532.485 33.7214Z" fill="white"/>
</g>
<g style="mix-blend-mode:lighten">
<path d="M9.7483 91.1182C9.7483 94.7684 8.25907 96.5936 5.28061 96.5936C2.30216 96.5936 0.812927 94.7684 0.812927 91.1182V86.0723C0.812927 80.9906 3.1886 78.3782 7.93995 78.2351C9.35826 75.1574 10.8829 70.04 12.514 62.8827C14.1451 55.6538 15.4925 47.8524 16.5562 39.4783C17.6199 31.1043 18.1518 23.6607 18.1518 17.1476H55.2761V78.3424C59.5311 78.5572 61.6585 81.1338 61.6585 86.0723V91.1182C61.6585 94.7684 60.1693 96.5936 57.1908 96.5936C54.2124 96.5936 52.7232 94.7684 52.7232 91.1182V86.7165H9.7483V91.1182ZM27.8318 26.1658C27.5481 33.9672 26.3426 43.2001 24.2151 53.8645C22.1585 64.4573 19.9956 72.4019 17.7263 77.6983H46.3408V26.1658H27.8318Z" fill="#7919A6"/>
<path d="M78.1713 87.468C75.2638 87.468 73.81 85.7502 73.81 82.3147V21.6567C73.81 18.1496 75.2993 16.3961 78.2777 16.3961C81.2562 16.3961 82.7454 18.257 82.7454 21.9788V71.3641L197.988 19.08C199.335 17.2907 200.86 16.3961 202.562 16.3961C205.398 16.3961 206.817 18.1496 206.817 21.6567V82.3147C206.817 85.7502 205.327 87.468 202.349 87.468C199.371 87.468 197.881 85.8576 197.881 82.6368V32.6073L83.0645 84.4619C82.2135 85.6787 81.4689 86.466 80.8307 86.8238C80.1924 87.2533 79.306 87.468 78.1713 87.468Z" fill="#7919A6"/>
<path d="M258.275 46.3493C262.246 46.3493 265.402 45.4905 267.742 43.7727C270.082 41.9834 271.252 39.6573 271.252 36.7944C271.252 33.6451 269.976 31.1043 267.423 29.1718C264.941 27.1678 261.75 26.1658 257.849 26.1658H238.383C236.681 26.1658 235.546 26.4521 234.979 27.0246C234.483 27.5972 234.234 28.8497 234.234 30.7822V32.7147C234.234 36.3649 232.745 38.19 229.767 38.19C226.788 38.19 225.299 36.3649 225.299 32.7147C225.299 26.9889 226.221 22.9808 228.065 20.6904C229.909 18.3285 233.1 17.1476 237.638 17.1476H258.594C262.849 17.1476 266.607 17.9349 269.87 19.5095C273.132 21.0841 275.649 23.3028 277.422 26.1658C279.266 29.0287 280.188 32.321 280.188 36.0428C280.188 42.3413 277.918 47.3156 273.38 50.9658C277.918 55.0455 280.188 60.3061 280.188 66.7476C280.188 70.541 279.266 73.9765 277.422 77.0541C275.578 80.0602 272.99 82.4221 269.657 84.1399C266.395 85.8576 262.707 86.7165 258.594 86.7165H237.638C233.1 86.7165 229.909 85.5713 228.065 83.281C226.221 80.9191 225.299 76.8752 225.299 71.1494C225.299 67.4991 226.788 65.674 229.767 65.674C232.745 65.674 234.234 67.4991 234.234 71.1494V73.0818C234.234 75.0143 234.483 76.2668 234.979 76.8394C235.546 77.412 236.681 77.6983 238.383 77.6983H257.849C261.679 77.6983 264.87 76.5889 267.423 74.3701C269.976 72.0798 271.252 69.2885 271.252 65.9961C271.252 62.8469 270.047 60.3061 267.636 58.3736C265.225 56.3695 262.104 55.3675 258.275 55.3675H249.127C245.439 55.3675 243.595 53.8645 243.595 50.8584C243.595 47.8524 245.439 46.3493 249.127 46.3493H258.275Z" fill="#7919A6"/>
<path d="M323.593 17.1476L349.016 81.8853C349.229 82.601 349.336 83.4957 349.336 84.5693C349.336 85.5713 348.875 86.466 347.953 87.2533C347.102 88.0406 346.073 88.4342 344.868 88.4342C342.669 88.4342 341.145 87.2891 340.294 84.9987L333.167 66.4255H304.446L297.319 84.9987C296.326 87.2891 294.801 88.4342 292.745 88.4342C291.539 88.4342 290.476 88.0406 289.554 87.2533C288.703 86.466 288.277 85.5713 288.277 84.5693C288.277 83.4957 288.384 82.601 288.596 81.8853L314.02 17.1476H323.593ZM318.7 30.6749L308.063 57.4074H329.55L318.7 30.6749Z" fill="#7919A6"/>
<path d="M380.434 18.9727C376.25 18.9727 373.307 17.8991 371.605 15.7519C369.903 13.6047 369.052 9.9187 369.052 4.69388V0.0774231H377.987V6.41163C377.987 7.98624 378.165 8.98826 378.519 9.41769C378.874 9.77556 379.796 9.95449 381.285 9.95449H392.135C393.553 9.95449 394.44 9.77556 394.794 9.41769C395.149 8.98826 395.326 7.98624 395.326 6.41163V0.0774231H404.262V4.69388C404.262 9.99028 403.411 13.7121 401.709 15.8593C400.007 17.9349 397.064 18.9727 392.88 18.9727H380.434ZM363.946 87.468C361.039 87.468 359.585 85.7502 359.585 82.3147V21.6567C359.585 18.1496 361.074 16.3961 364.052 16.3961C367.031 16.3961 368.52 18.257 368.52 21.9788V71.3641L405.644 19.08C406.992 17.2907 408.517 16.3961 410.219 16.3961C413.055 16.3961 414.473 18.1496 414.473 21.6567V82.3147C414.473 85.7502 412.984 87.468 410.006 87.468C407.027 87.468 405.538 85.8576 405.538 82.6368V32.6073L368.839 84.4619C367.988 85.6787 367.244 86.466 366.605 86.8238C365.967 87.2533 365.081 87.468 363.946 87.468Z" fill="#7919A6"/>
<path d="M439.99 82.3147C439.99 85.7502 438.501 87.468 435.522 87.468C432.544 87.468 431.054 85.7502 431.054 82.3147V21.6567C431.054 18.1496 432.473 16.3961 435.309 16.3961C438.43 16.3961 439.99 18.1496 439.99 21.6567V44.7389H477.008V21.6567C477.008 18.1496 478.497 16.3961 481.475 16.3961C484.454 16.3961 485.943 18.1496 485.943 21.6567V82.3147C485.943 85.7502 484.454 87.468 481.475 87.468C478.497 87.468 477.008 85.7502 477.008 82.3147V53.7571H439.99V82.3147Z" fill="#7919A6"/>
<path d="M535.258 17.1476L560.681 81.8853C560.894 82.601 561 83.4957 561 84.5693C561 85.5713 560.539 86.466 559.617 87.2533C558.766 88.0406 557.738 88.4342 556.532 88.4342C554.334 88.4342 552.809 87.2891 551.958 84.9987L544.831 66.4255H516.11L508.983 84.9987C507.991 87.2891 506.466 88.4342 504.409 88.4342C503.204 88.4342 502.14 88.0406 501.218 87.2533C500.367 86.466 499.942 85.5713 499.942 84.5693C499.942 83.4957 500.048 82.601 500.261 81.8853L525.684 17.1476H535.258ZM530.364 30.6749L519.727 57.4074H541.215L530.364 30.6749Z" fill="#7919A6"/>
</g>
<g style="mix-blend-mode:lighten">
<path d="M16.5612 93.4536C16.5612 97.0609 15.072 98.8645 12.0935 98.8645C9.11508 98.8645 7.62585 97.0609 7.62585 93.4536V88.4671C7.62585 83.4452 10.0015 80.8635 14.7529 80.722C16.1712 77.6806 17.6959 72.6234 19.3269 65.5503C20.958 58.4064 22.3054 50.6968 23.3691 42.4213C24.4329 34.1457 24.9647 26.7897 24.9647 20.3532H62.0891V80.8281C66.344 81.0403 68.4715 83.5866 68.4715 88.4671V93.4536C68.4715 97.0609 66.9822 98.8645 64.0038 98.8645C61.0253 98.8645 59.5361 97.0609 59.5361 93.4536V89.1037H16.5612V93.4536ZM34.6447 29.2653C34.361 36.975 33.1555 46.0993 31.028 56.6382C28.9715 67.1063 26.8085 74.9575 24.5392 80.1916H53.1537V29.2653H34.6447Z" fill="#EC7200"/>
<path d="M84.9843 89.8463C82.0767 89.8463 80.623 88.1488 80.623 84.7537V24.8093C80.623 21.3434 82.1122 19.6105 85.0906 19.6105C88.0691 19.6105 89.5583 21.4495 89.5583 25.1276V73.9319L204.801 22.2629C206.148 20.4947 207.673 19.6105 209.375 19.6105C212.211 19.6105 213.63 21.3434 213.63 24.8093V84.7537C213.63 88.1488 212.14 89.8463 209.162 89.8463C206.184 89.8463 204.694 88.2549 204.694 85.072V35.6311L89.8774 86.8756C89.0265 88.0781 88.2819 88.8561 87.6436 89.2098C87.0054 89.6341 86.1189 89.8463 84.9843 89.8463Z" fill="#EC7200"/>
<path d="M265.088 49.2114C269.059 49.2114 272.215 48.3627 274.555 46.6651C276.895 44.8968 278.065 42.5981 278.065 39.7689C278.065 36.6567 276.789 34.1457 274.236 32.236C271.754 30.2555 268.563 29.2653 264.662 29.2653H245.196C243.494 29.2653 242.359 29.5482 241.792 30.1141C241.296 30.6799 241.047 31.9177 241.047 33.8274V35.7372C241.047 39.3445 239.558 41.1481 236.58 41.1481C233.601 41.1481 232.112 39.3445 232.112 35.7372C232.112 30.0787 233.034 26.1178 234.878 23.8544C236.722 21.5203 239.913 20.3532 244.451 20.3532H265.407C269.662 20.3532 273.42 21.1313 276.682 22.6873C279.945 24.2434 282.462 26.4361 284.235 29.2653C286.079 32.0945 287.001 35.3482 287.001 39.0262C287.001 45.2505 284.731 50.1663 280.193 53.7736C284.731 57.8052 287.001 63.004 287.001 69.3697C287.001 73.1185 286.079 76.5136 284.235 79.555C282.391 82.5257 279.803 84.8598 276.47 86.5574C273.208 88.2549 269.52 89.1037 265.407 89.1037H244.451C239.913 89.1037 236.722 87.972 234.878 85.7086C233.034 83.3745 232.112 79.3782 232.112 73.7197C232.112 70.1124 233.601 68.3088 236.58 68.3088C239.558 68.3088 241.047 70.1124 241.047 73.7197V75.6294C241.047 77.5392 241.296 78.7769 241.792 79.3428C242.359 79.9086 243.494 80.1916 245.196 80.1916H264.662C268.492 80.1916 271.683 79.0952 274.236 76.9026C276.789 74.6392 278.065 71.8807 278.065 68.6271C278.065 65.5149 276.86 63.004 274.449 61.0942C272.038 59.1138 268.917 58.1235 265.088 58.1235H255.94C252.252 58.1235 250.408 56.6382 250.408 53.6675C250.408 50.6968 252.252 49.2114 255.94 49.2114H265.088Z" fill="#EC7200"/>
<path d="M330.406 20.3532L355.829 84.3293C356.042 85.0366 356.148 85.9208 356.148 86.9817C356.148 87.972 355.688 88.8561 354.766 89.6341C353.915 90.4122 352.886 90.8012 351.681 90.8012C349.482 90.8012 347.958 89.6695 347.107 87.4061L339.98 69.0514H311.259L304.132 87.4061C303.139 89.6695 301.614 90.8012 299.558 90.8012C298.352 90.8012 297.288 90.4122 296.367 89.6341C295.516 88.8561 295.09 87.972 295.09 86.9817C295.09 85.9208 295.196 85.0366 295.409 84.3293L320.832 20.3532H330.406ZM325.513 33.7214L314.876 60.1394H336.363L325.513 33.7214Z" fill="#EC7200"/>
<path d="M387.247 22.1569C383.063 22.1569 380.12 21.0959 378.418 18.974C376.716 16.852 375.865 13.2094 375.865 8.04603V3.48389H384.8V9.74357C384.8 11.2997 384.978 12.2899 385.332 12.7143C385.687 13.0679 386.609 13.2448 388.098 13.2448H398.948C400.366 13.2448 401.253 13.0679 401.607 12.7143C401.962 12.2899 402.139 11.2997 402.139 9.74357V3.48389H411.075V8.04603C411.075 13.2801 410.224 16.9581 408.522 19.0801C406.82 21.1313 403.877 22.1569 399.693 22.1569H387.247ZM370.759 89.8463C367.851 89.8463 366.398 88.1488 366.398 84.7537V24.8093C366.398 21.3434 367.887 19.6105 370.865 19.6105C373.844 19.6105 375.333 21.4495 375.333 25.1276V73.9319L412.457 22.2629C413.805 20.4947 415.329 19.6105 417.031 19.6105C419.868 19.6105 421.286 21.3434 421.286 24.8093V84.7537C421.286 88.1488 419.797 89.8463 416.819 89.8463C413.84 89.8463 412.351 88.2549 412.351 85.072V35.6311L375.652 86.8756C374.801 88.0781 374.057 88.8561 373.418 89.2098C372.78 89.6341 371.894 89.8463 370.759 89.8463Z" fill="#EC7200"/>
<path d="M446.803 84.7537C446.803 88.1488 445.313 89.8463 442.335 89.8463C439.357 89.8463 437.867 88.1488 437.867 84.7537V24.8093C437.867 21.3434 439.286 19.6105 442.122 19.6105C445.243 19.6105 446.803 21.3434 446.803 24.8093V47.62H483.821V24.8093C483.821 21.3434 485.31 19.6105 488.288 19.6105C491.267 19.6105 492.756 21.3434 492.756 24.8093V84.7537C492.756 88.1488 491.267 89.8463 488.288 89.8463C485.31 89.8463 483.821 88.1488 483.821 84.7537V56.5321H446.803V84.7537Z" fill="#EC7200"/>
<path d="M540.758 20.3532L566.181 84.3293C566.394 85.0366 566.5 85.9208 566.5 86.9817C566.5 87.972 566.039 88.8561 565.117 89.6341C564.266 90.4122 563.238 90.8012 562.032 90.8012C559.834 90.8012 558.309 89.6695 557.458 87.4061L550.331 69.0514H521.61L514.483 87.4061C513.491 89.6695 511.966 90.8012 509.909 90.8012C508.704 90.8012 507.64 90.4122 506.718 89.6341C505.867 88.8561 505.442 87.972 505.442 86.9817C505.442 85.9208 505.548 85.0366 505.761 84.3293L531.184 20.3532H540.758ZM535.864 33.7214L525.227 60.1394H546.715L535.864 33.7214Z" fill="#EC7200"/>
</g>
</svg>
